<svg xmlns="http://www.w3.org/2000/svg" width="162.807" height="62.936" viewBox="0 0 162.807 62.936">
  <g id="Capa_2" data-name="Capa 2" transform="translate(0 0.274)">
    <g id="Capa_1" data-name="Capa 1" transform="translate(-0.001 -0.274)">
      <path id="Trazado_13553" data-name="Trazado 13553" d="M169.77,134.939l2.64,1.005h0a.779.779,0,0,0,.322.107.791.791,0,1,0-.079-1.556h0Z" transform="translate(-129.326 -102.374)" fill="#bdbdbd"/>
      <path id="Trazado_13554" data-name="Trazado 13554" d="M172.413,145.611a.867.867,0,0,0-.557-1.091.814.814,0,0,0-.31-.038h0l-3.426-.272,2.923,1.806h0a.884.884,0,0,0,.279.155.867.867,0,0,0,1.091-.555" transform="translate(-128.069 -109.79)" fill="#bdbdbd"/>
      <path id="Trazado_13555" data-name="Trazado 13555" d="M169.482,154.138a.936.936,0,0,0-.355-1.279.867.867,0,0,0-.238-.093h0l-3.969-1.3,3.054,2.84h0a.871.871,0,0,0,.238.191.939.939,0,0,0,1.279-.357" transform="translate(-125.631 -115.32)" fill="#bdbdbd"/>
      <path id="Trazado_13556" data-name="Trazado 13556" d="M164.81,162.108a1.015,1.015,0,0,0-.064-1.429,1.106,1.106,0,0,0-.238-.155h0l-4.348-2.6,3.059,4.069h0a.981.981,0,0,0,.162.2,1.015,1.015,0,0,0,1.429-.064" transform="translate(-122.005 -120.234)" fill="#bdbdbd"/>
      <path id="Trazado_13557" data-name="Trazado 13557" d="M158.688,167.508h0l-4.4-4.288,2.656,5.522h0a1.042,1.042,0,0,0,.122.219,1.091,1.091,0,1,0,1.615-1.448" transform="translate(-117.534 -124.271)" fill="#bdbdbd"/>
      <path id="Trazado_13558" data-name="Trazado 13558" d="M152.17,175.206l-.036-.057-3.664-5.579,1.641,6.475a.366.366,0,0,0,.021.088v.024h0a.976.976,0,0,0,.048.141,1.137,1.137,0,0,0,2.073-.934,1.159,1.159,0,0,0-.074-.131h0Z" transform="translate(-113.1 -129.108)" fill="#bdbdbd"/>
      <path id="Trazado_13559" data-name="Trazado 13559" d="M141.345,182.223v.04h0a.853.853,0,0,0,.017.152,1.165,1.165,0,1,0,2.277-.488.938.938,0,0,0-.045-.145h0v-.033l-.021-.057L141,174.84l.35,7.3v.079" transform="translate(-107.41 -133.123)" fill="#bdbdbd"/>
      <path id="Trazado_13560" data-name="Trazado 13560" d="M127.892,188.208a1.191,1.191,0,0,0,1.222-1.406h0v-.038a.6.6,0,0,0,0-.064l-1.182-7.7-1.239,7.695a.163.163,0,0,1-.014.081v.031h0a1.191,1.191,0,0,0,1.227,1.4" transform="translate(-96.487 -136.292)" fill="#bdbdbd"/>
      <path id="Trazado_13561" data-name="Trazado 13561" d="M108.895,188.724a1.315,1.315,0,1,0,2.475.834,1.27,1.27,0,0,0,.026-.3l.426-8.1Z" transform="translate(-82.856 -137.937)" fill="#bdbdbd"/>
      <path id="Trazado_13562" data-name="Trazado 13562" d="M92.238,189.585a1.31,1.31,0,0,0,.1-.307l2.177-8.138-4.643,7.028a1.429,1.429,0,0,0-.167.281,1.39,1.39,0,0,0,2.537,1.136" transform="translate(-68.238 -137.922)" fill="#bdbdbd"/>
      <path id="Trazado_13563" data-name="Trazado 13563" d="M69.744,184.967A1.466,1.466,0,0,0,72.11,186.7a1.4,1.4,0,0,0,.167-.3l4.131-8.074-6.432,6.392a1.493,1.493,0,0,0-.238.238" transform="translate(-52.913 -135.781)" fill="#bdbdbd"/>
      <path id="Trazado_13564" data-name="Trazado 13564" d="M18.48,172.763l11.971-8.593L16.97,170.126a1.4,1.4,0,0,0-.272.126,1.541,1.541,0,1,0,1.572,2.649,1.4,1.4,0,0,0,.2-.148" transform="translate(-12.107 -124.995)" fill="#bdbdbd"/>
      <path id="Trazado_13565" data-name="Trazado 13565" d="M49.729,178.1a1.541,1.541,0,1,0,2.073,2.28,1.589,1.589,0,0,0,.222-.253l6.3-7.669-8.3,5.436a1.589,1.589,0,0,0-.288.2" transform="translate(-37.47 -131.31)" fill="#bdbdbd"/>
      <path id="Trazado_13566" data-name="Trazado 13566" d="M6.639,156.134a1.615,1.615,0,1,0,1.01,3.068,1.511,1.511,0,0,0,.276-.119l12.364-5.694L6.948,156.065a1.667,1.667,0,0,0-.312.069" transform="translate(-4.211 -116.783)" fill="#bdbdbd"/>
      <path id="Trazado_13567" data-name="Trazado 13567" d="M1.87,141.77a1.627,1.627,0,0,0,.343-.074l11.957-2.9-12.3-.388a1.627,1.627,0,0,0-.357,0,1.691,1.691,0,1,0,.357,3.364" transform="translate(0.001 -105.363)" fill="#bdbdbd"/>
      <path id="Trazado_13568" data-name="Trazado 13568" d="M1.668,115.735a1.668,1.668,0,0,0,.345,0l11.111-.381L2.338,112.64a1.669,1.669,0,0,0-.326-.071,1.594,1.594,0,0,0-.343,3.166" transform="translate(-0.239 -85.684)" fill="#bdbdbd"/>
      <path id="Trazado_13569" data-name="Trazado 13569" d="M6.668,89.793a1.744,1.744,0,0,0,.45.083L16.5,91.135l-8.338-4.5a1.889,1.889,0,0,0-.419-.2,1.765,1.765,0,1,0-1.086,3.359" transform="translate(-4.142 -65.712)" fill="#bdbdbd"/>
      <path id="Trazado_13570" data-name="Trazado 13570" d="M16.906,65.891a1.627,1.627,0,0,0,.476.183l7.742,2.592-6.17-5.355a1.692,1.692,0,0,0-.386-.3A1.671,1.671,0,1,0,16.9,65.9" transform="translate(-12.236 -47.761)" fill="#bdbdbd"/>
      <path id="Trazado_13571" data-name="Trazado 13571" d="M74.123,13.739h0l3.011,2.742-.091-4a1.727,1.727,0,1,0-2.921,1.251" transform="translate(-56.058 -8.13)" fill="#bdbdbd"/>
      <path id="Trazado_13572" data-name="Trazado 13572" d="M51.427,27.351h0L55.8,30.193l-1.391-4.962a1.992,1.992,0,1,0-3.557,1.594,1.963,1.963,0,0,0,.572.526" transform="translate(-38.446 -17.959)" fill="#bdbdbd"/>
      <path id="Trazado_13573" data-name="Trazado 13573" d="M32.882,45.185l5.937,2.859L35.4,42.564a1.906,1.906,0,0,0-.443-.591,1.944,1.944,0,0,0-2.6,2.868,1.989,1.989,0,0,0,.536.343" transform="translate(-24.255 -31.61)" fill="#bdbdbd"/>
      <path id="Trazado_13574" data-name="Trazado 13574" d="M99.789,5.195l1.637,1.715.748-2.289a1.477,1.477,0,1,0-2.83-.222,1.46,1.46,0,0,0,.445.789" transform="translate(-75.654 -1.935)" fill="#bdbdbd"/>
      <path id="Trazado_13575" data-name="Trazado 13575" d="M109.762,85.885l-.581-3.135h0a.833.833,0,0,0-.055-.181.791.791,0,0,0-1.429.653.86.86,0,0,0,.114.176Z" transform="translate(-82.011 -62.542)" fill="#bdbdbd"/>
      <path id="Trazado_13576" data-name="Trazado 13576" d="M116.835,76.609a.77.77,0,0,0,.06.181h0l1.639,3.459V76.371h0a.938.938,0,0,0-.014-.138.865.865,0,0,0-1.691.362" transform="translate(-88.981 -57.486)" fill="#bdbdbd"/>
      <path id="Trazado_13577" data-name="Trazado 13577" d="M128.886,70.65a.924.924,0,0,0-.9,1.179h0l.929,4.486.908-4.538h0v-.014h0a1.049,1.049,0,0,0,.017-.174.953.953,0,0,0-.953-.936" transform="translate(-97.468 -53.754)" fill="#bdbdbd"/>
      <path id="Trazado_13578" data-name="Trazado 13578" d="M139.86,74.283l2.065-5.115a1.037,1.037,0,0,0,.071-.21,1.016,1.016,0,1,0-1.984-.434,1.165,1.165,0,0,0-.021.222h0Z" transform="translate(-106.541 -51.526)" fill="#bdbdbd"/>
      <path id="Trazado_13579" data-name="Trazado 13579" d="M150.574,67.382a1.091,1.091,0,0,0-1.429.555.917.917,0,0,0-.067.2h0l-1.668,6.4L151.029,69h0a1.164,1.164,0,0,0,.1-.176,1.091,1.091,0,0,0-.553-1.429" transform="translate(-112.293 -51.195)" fill="#bdbdbd"/>
      <path id="Trazado_13580" data-name="Trazado 13580" d="M161.672,70.172a1.139,1.139,0,0,0-1.575.255,1.42,1.42,0,0,0-.074.131h0v.024c-.012.026-.026.048-.036.071L157,76.642l4.765-4.7.057-.055.019-.019h0a.9.9,0,0,0,.1-.112,1.136,1.136,0,0,0-.257-1.587" transform="translate(-119.598 -53.23)" fill="#bdbdbd"/>
      <path id="Trazado_13581" data-name="Trazado 13581" d="M170.377,76.567a1.522,1.522,0,0,0-.1.114h0l-.021.024c-.014.019-.031.036-.043.055l-4.6,5.7,6.125-4.012.06-.038.026-.019h0c.041-.031.083-.057.122-.091a1.167,1.167,0,0,0-1.565-1.73" transform="translate(-126.157 -58.056)" fill="#bdbdbd"/>
      <path id="Trazado_13582" data-name="Trazado 13582" d="M181.731,86.921a1.244,1.244,0,0,0-1.7-.453c-.048.029-.091.064-.133.1h0l-.029.021c-.019.017-.038.029-.055.045l-6.068,4.912,7.283-2.821.069-.026.033-.014h0a1.409,1.409,0,0,0,.15-.069,1.244,1.244,0,0,0,.448-1.7" transform="translate(-132.358 -65.677)" fill="#bdbdbd"/>
      <path id="Trazado_13583" data-name="Trazado 13583" d="M189.217,102.8a1.315,1.315,0,1,0-.82-2.5,1.245,1.245,0,0,0-.274.126l-7.214,3.7,8.009-1.27a1.191,1.191,0,0,0,.3-.06" transform="translate(-137.812 -76.29)" fill="#bdbdbd"/>
      <path id="Trazado_13584" data-name="Trazado 13584" d="M195.073,119.905a1.391,1.391,0,0,0-.288-2.766,1.5,1.5,0,0,0-.317.071l-8.128,2.211,8.409.476a1.337,1.337,0,0,0,.324,0" transform="translate(-141.948 -89.165)" fill="#bdbdbd"/>
      <path id="Trazado_13585" data-name="Trazado 13585" d="M198.4,139.366a1.465,1.465,0,1,0-.026-2.911l-9.053.476,8.76,2.361a1.477,1.477,0,0,0,.326.074" transform="translate(-144.218 -103.873)" fill="#bdbdbd"/>
      <path id="Trazado_13586" data-name="Trazado 13586" d="M201.4,172.6a1.539,1.539,0,0,0-.588-2.1,1.43,1.43,0,0,0-.238-.1L187.29,164.44l11.764,8.576a1.645,1.645,0,0,0,.238.172,1.541,1.541,0,0,0,2.1-.588" transform="translate(-142.672 -125.2)" fill="#bdbdbd"/>
      <path id="Trazado_13587" data-name="Trazado 13587" d="M198.691,155.75a1.541,1.541,0,1,0,.934-2.938,1.6,1.6,0,0,0-.331-.064l-9.794-1.6,8.869,4.455a1.618,1.618,0,0,0,.319.145" transform="translate(-144.356 -115.076)" fill="#bdbdbd"/>
      <path id="Trazado_13588" data-name="Trazado 13588" d="M193.667,185.9a1.769,1.769,0,0,0-.238-.179L182.42,177.88l8.872,10.18a1.616,1.616,0,1,0,2.38-2.163" transform="translate(-138.962 -135.439)" fill="#bdbdbd"/>
      <path id="Trazado_13589" data-name="Trazado 13589" d="M183.314,200.306a1.8,1.8,0,0,0-.238-.264L174.6,191.16l5.813,10.825a1.765,1.765,0,0,0,.179.31,1.691,1.691,0,0,0,2.735-1.989" transform="translate(-133.005 -145.555)" fill="#bdbdbd"/>
      <path id="Trazado_13590" data-name="Trazado 13590" d="M166.807,214.593a1.592,1.592,0,0,0,2.909-1.3,1.479,1.479,0,0,0-.172-.293l-5.925-9.484,3.083,10.749a1.606,1.606,0,0,0,.1.324" transform="translate(-124.641 -154.97)" fill="#bdbdbd"/>
      <path id="Trazado_13591" data-name="Trazado 13591" d="M149.6,224.022a1.766,1.766,0,1,0,3.452-.746,1.711,1.711,0,0,0-.148-.414l-3.623-8.922.283,9.615a1.734,1.734,0,0,0,.036.476" transform="translate(-113.717 -162.908)" fill="#bdbdbd"/>
      <path id="Trazado_13592" data-name="Trazado 13592" d="M126.63,231.291a1.668,1.668,0,0,0,1.668-1.668,1.594,1.594,0,0,0-.069-.476l-1.6-8.057-1.6,8.035a1.668,1.668,0,0,0,1.6,2.166" transform="translate(-95.184 -168.355)" fill="#bdbdbd"/>
      <path id="Trazado_13593" data-name="Trazado 13593" d="M51.656,222.853a1.727,1.727,0,0,0,2.413-.374,1.694,1.694,0,0,0,.283-.615h0L55.5,217.61l-3.7,2.354h0a1.691,1.691,0,0,0-.529.476,1.727,1.727,0,0,0,.376,2.413" transform="translate(-38.808 -165.704)" fill="#bdbdbd"/>
      <path id="Trazado_13594" data-name="Trazado 13594" d="M76.808,229.1a1.965,1.965,0,0,0,.169-.76h0l.476-5.517-3.812,4h0a1.992,1.992,0,1,0,3.166,2.275" transform="translate(-55.606 -169.673)" fill="#bdbdbd"/>
      <path id="Trazado_13595" data-name="Trazado 13595" d="M101.824,231.7a1.963,1.963,0,0,0,.033-.61l-.429-6.921-3.121,6.044a1.944,1.944,0,1,0,3.516,1.487" transform="translate(-74.637 -170.701)" fill="#bdbdbd"/>
      <path id="Trazado_13596" data-name="Trazado 13596" d="M32.161,211.073a1.479,1.479,0,0,0,2.5-.476l1.022-2.647-2.706.7a1.477,1.477,0,0,0-.812,2.428" transform="translate(-24.216 -158.345)" fill="#bdbdbd"/>
      <path id="Trazado_13597" data-name="Trazado 13597" d="M99.389,165a.791.791,0,1,0,1.286.92.912.912,0,0,0,.088-.164h0l.936-2.547-2.082,1.577a.758.758,0,0,0-.238.214" transform="translate(-75.59 -124.263)" fill="#bdbdbd"/>
      <path id="Trazado_13598" data-name="Trazado 13598" d="M89.643,159.419a.836.836,0,0,0-.219.141.865.865,0,0,0,1.158,1.286.952.952,0,0,0,.136-.162h0l1.887-2.8-2.966,1.534Z" transform="translate(-67.902 -120.203)" fill="#bdbdbd"/>
      <path id="Trazado_13599" data-name="Trazado 13599" d="M79.7,154.05a.939.939,0,0,0,1.284.338.919.919,0,0,0,.222-.183h0L84.2,151.46l-3.9,1.191h0a.975.975,0,0,0-.262.1.953.953,0,0,0-.338,1.286" transform="translate(-60.614 -115.313)" fill="#bdbdbd"/>
      <path id="Trazado_13600" data-name="Trazado 13600" d="M72.18,146.773a1.1,1.1,0,0,0,.214-.1h0L76.82,144.2l-5,.6h0a1,1,0,0,0-.262.043,1.015,1.015,0,0,0,.624,1.93" transform="translate(-54.003 -109.782)" fill="#bdbdbd"/>
      <path id="Trazado_13601" data-name="Trazado 13601" d="M64.617,136.713h0l5.92-1.684-6.127-.419h0a1.089,1.089,0,1,0-.048,2.158,1.139,1.139,0,0,0,.255-.062" transform="translate(-48.11 -102.467)" fill="#bdbdbd"/>
      <path id="Trazado_13602" data-name="Trazado 13602" d="M58.821,122.681h.257l6.616-.422-6.38-1.784-.079-.021h-.026a.954.954,0,0,0-.148-.031,1.139,1.139,0,0,0-.238,2.263" transform="translate(-44.067 -91.667)" fill="#bdbdbd"/>
      <path id="Trazado_13603" data-name="Trazado 13603" d="M55.15,105.007a1.17,1.17,0,0,0,.75,1.47c.05.014.1.021.15.031h.1l7.183,1.132-6.482-3.276-.064-.031-.029-.014h0a.74.74,0,0,0-.141-.062A1.163,1.163,0,0,0,55.15,105" transform="translate(-41.968 -79.31)" fill="#bdbdbd"/>
      <path id="Trazado_13604" data-name="Trazado 13604" d="M56.563,87.342a1.244,1.244,0,0,0,.455,1.694c.048.026.1.045.148.067H57.2c.024,0,.048.021.071.029L64.527,91.9l-6.051-4.855L58.419,87l-.029-.021h0a1.116,1.116,0,0,0-.133-.1,1.241,1.241,0,0,0-1.694.457" transform="translate(-42.963 -65.993)" fill="#bdbdbd"/>
      <path id="Trazado_13605" data-name="Trazado 13605" d="M64.528,69.7l-.024-.029h0a1.463,1.463,0,0,0-.117-.126,1.316,1.316,0,1,0-1.761,1.956,1.405,1.405,0,0,0,.141.1h0l.029.019.071.045,6.837,4.407-5.12-6.313-.057-.062" transform="translate(-47.376 -52.658)" fill="#bdbdbd"/>
      <path id="Trazado_13606" data-name="Trazado 13606" d="M75.03,53.621l-.017-.036h0a1.313,1.313,0,0,0-.091-.16,1.391,1.391,0,0,0-2.256,1.629,1.334,1.334,0,0,0,.122.136h0l.024.021c.024.024.048.05.071.071l5.987,5.906-3.812-7.495a.714.714,0,0,0-.038-.074" transform="translate(-55.155 -40.193)" fill="#bdbdbd"/>
      <path id="Trazado_13607" data-name="Trazado 13607" d="M86.341,39.528a1.55,1.55,0,0,0,.169.279l4.915,7.521-2.311-8.681a1.465,1.465,0,1,0-2.773.881" transform="translate(-65.672 -28.469)" fill="#bdbdbd"/>
      <path id="Trazado_13608" data-name="Trazado 13608" d="M127.06,15.8l1.513-14.2a1.754,1.754,0,0,0,.024-.276,1.541,1.541,0,1,0-3.08,0,1.413,1.413,0,0,0,.026.269Z" transform="translate(-95.614 0.274)" fill="#bdbdbd"/>
      <path id="Trazado_13609" data-name="Trazado 13609" d="M104.871,23.9a1.541,1.541,0,0,0-1.191,1.832,1.627,1.627,0,0,0,.112.324l3.531,9.291-.6-9.91a1.712,1.712,0,0,0-.033-.345,1.541,1.541,0,0,0-1.822-1.191" transform="translate(-78.954 -18.113)" fill="#bdbdbd"/>
      <path id="Trazado_13610" data-name="Trazado 13610" d="M150.663,4.932a1.706,1.706,0,0,0,.093-.3,1.615,1.615,0,1,0-3.159-.674,1.524,1.524,0,0,0-.036.326L146.43,17.377Z" transform="translate(-111.546 -1.979)" fill="#bdbdbd"/>
      <path id="Trazado_13611" data-name="Trazado 13611" d="M162.21,23.561l6.275-10.1a1.589,1.589,0,0,0,.179-.31,1.7,1.7,0,1,0-3.1-1.379,1.73,1.73,0,0,0-.11.348Z" transform="translate(-123.567 -8.137)" fill="#bdbdbd"/>
      <path id="Trazado_13612" data-name="Trazado 13612" d="M178.79,34.618l7.485-7.7a1.566,1.566,0,0,0,.238-.253,1.594,1.594,0,0,0-2.575-1.875,1.64,1.64,0,0,0-.174.307Z" transform="translate(-136.197 -18.353)" fill="#bdbdbd"/>
      <path id="Trazado_13613" data-name="Trazado 13613" d="M195.27,49.471l7.823-4.765a1.793,1.793,0,0,0,.412-.279,1.771,1.771,0,1,0-2.382-2.621,1.684,1.684,0,0,0-.3.355Z" transform="translate(-148.751 -31.432)" fill="#bdbdbd"/>
      <path id="Trazado_13614" data-name="Trazado 13614" d="M210.39,68.542l7.53-2.528a1.608,1.608,0,0,0,.476-.186,1.668,1.668,0,1,0-2.065-2.568Z" transform="translate(-160.269 -47.71)" fill="#bdbdbd"/>
      <path id="Trazado_13615" data-name="Trazado 13615" d="M228.033,86.229l-5.353,3.7,6.382-.2a1.975,1.975,0,0,0,.738-.091,1.944,1.944,0,1,0-1.768-3.4" transform="translate(-169.631 -65.328)" fill="#bdbdbd"/>
      <path id="Trazado_13616" data-name="Trazado 13616" d="M243.965,140.18a1.73,1.73,0,0,0-1.529-1.906,1.706,1.706,0,0,0-.672.057h0l-4.024,1.191,3.645,1.961h0a1.708,1.708,0,0,0,.674.222,1.73,1.73,0,0,0,1.906-1.527" transform="translate(-181.103 -105.26)" fill="#bdbdbd"/>
      <path id="Trazado_13617" data-name="Trazado 13617" d="M237.09,111.138a2,2,0,0,0-.743.238h0l-4.676,2.347,5.019,1.3h0a2.018,2.018,0,0,0,.815.086,1.992,1.992,0,1,0-.415-3.962" transform="translate(-176.479 -84.593)" fill="#bdbdbd"/>
      <path id="Trazado_13618" data-name="Trazado 13618" d="M243.231,165.348a1.46,1.46,0,0,0-.748-.043l-2.563.515,1.73,1.889a1.477,1.477,0,1,0,1.582-2.361" transform="translate(-182.764 -125.837)" fill="#bdbdbd"/>
      <path id="Trazado_13619" data-name="Trazado 13619" d="M316.491,74.345c0,1.191-.953,1.877-2.752,1.877H310.18V69.34h3.361c1.72,0,2.606.715,2.606,1.789a1.667,1.667,0,0,1-.915,1.515,1.7,1.7,0,0,1,1.258,1.7m-4.729-3.812v1.622h1.584c.777,0,1.191-.276,1.191-.817s-.422-.805-1.191-.805Zm3.14,3.645c0-.581-.443-.855-1.27-.855h-1.858v1.7h1.858c.827,0,1.27-.255,1.27-.846" transform="translate(-236.286 -52.756)" fill="#bdbdbd"/>
      <rect id="Rectángulo_144" data-name="Rectángulo 144" width="1.594" height="6.882" transform="translate(82.389 16.584)" fill="#bdbdbd"/>
      <path id="Trazado_13620" data-name="Trazado 13620" d="M361.65,72.409a3.791,3.791,0,0,1,6.568-2.342l-1.022.953a2.189,2.189,0,1,0-1.732,3.6A2.194,2.194,0,0,0,367.2,73.8l1.022.953a3.783,3.783,0,0,1-6.568-2.33" transform="translate(-275.494 -52.383)" fill="#bdbdbd"/>
      <path id="Trazado_13621" data-name="Trazado 13621" d="M403.139,74.946v1.277H397.81V69.34h5.2v1.279h-3.619v1.494h3.2v1.239h-3.2v1.594Z" transform="translate(-303.04 -52.756)" fill="#bdbdbd"/>
      <path id="Trazado_13622" data-name="Trazado 13622" d="M435.9,69.34v6.882H434.6l-3.43-4.179v4.179H429.59V69.34h1.317l3.423,4.179V69.34Z" transform="translate(-327.249 -52.756)" fill="#bdbdbd"/>
      <path id="Trazado_13623" data-name="Trazado 13623" d="M465.974,70.638h-2.2v-1.3h6v1.3h-2.2v5.584h-1.591Z" transform="translate(-353.286 -52.756)" fill="#bdbdbd"/>
      <path id="Trazado_13624" data-name="Trazado 13624" d="M501.959,74.946v1.277H496.63V69.34h5.2v1.279h-3.619v1.494h3.2v1.239h-3.2v1.594Z" transform="translate(-378.318 -52.756)" fill="#bdbdbd"/>
      <path id="Trazado_13625" data-name="Trazado 13625" d="M534.723,69.34v6.882h-1.308l-3.431-4.179v4.179H528.41V69.34h1.317l3.423,4.179V69.34Z" transform="translate(-402.527 -52.756)" fill="#bdbdbd"/>
      <path id="Trazado_13626" data-name="Trazado 13626" d="M567.5,74.708h-3.2l-.607,1.475H562.06l3.066-6.882H566.7l3.075,6.882h-1.668Zm-.5-1.191L565.9,70.882l-1.091,2.635Z" transform="translate(-428.161 -52.725)" fill="#bdbdbd"/>
      <path id="Trazado_13627" data-name="Trazado 13627" d="M605.983,76.222l-1.327-1.906h-1.465v1.906H601.6V69.34h2.978c1.839,0,2.99.953,2.99,2.5a2.239,2.239,0,0,1-1.425,2.185l1.544,2.211Zm-1.494-5.584h-1.3v2.4h1.3c.974,0,1.465-.453,1.465-1.191s-.491-1.191-1.465-1.191" transform="translate(-458.281 -52.756)" fill="#bdbdbd"/>
      <rect id="Rectángulo_145" data-name="Rectángulo 145" width="1.594" height="6.882" transform="translate(151.509 16.584)" fill="#bdbdbd"/>
      <path id="Trazado_13628" data-name="Trazado 13628" d="M651.79,72.409a3.772,3.772,0,1,1,3.766,3.559,3.562,3.562,0,0,1-3.766-3.559m5.92,0a2.145,2.145,0,1,0-4.288,0,2.154,2.154,0,1,0,4.307,0" transform="translate(-496.515 -52.383)" fill="#bdbdbd"/>
      <path id="Trazado_13629" data-name="Trazado 13629" d="M310.18,120.94h3.126c2.251,0,3.8,1.358,3.8,3.442s-1.544,3.44-3.8,3.44H310.18Zm3.054,5.575a2.147,2.147,0,1,0,0-4.288h-1.456v4.267Z" transform="translate(-236.286 -92.063)" fill="#bdbdbd"/>
      <path id="Trazado_13630" data-name="Trazado 13630" d="M353.689,126.546v1.277H348.36V120.94h5.2v1.279h-3.619v1.494h3.2v1.239h-3.2v1.594Z" transform="translate(-265.371 -92.063)" fill="#bdbdbd"/>
      <path id="Trazado_13631" data-name="Trazado 13631" d="M380.14,120.94h1.594v5.584h3.45v1.3H380.14Z" transform="translate(-289.58 -92.063)" fill="#bdbdbd"/>
      <path id="Trazado_13632" data-name="Trazado 13632" d="M430.918,123.437c0,1.534-1.151,2.49-2.99,2.49h-1.384v1.906H424.95V120.94h2.978c1.839,0,2.99.953,2.99,2.5m-1.613,0c0-.755-.491-1.191-1.465-1.191h-1.3v2.382h1.3c.974,0,1.465-.443,1.465-1.191" transform="translate(-323.715 -92.063)" fill="#bdbdbd"/>
      <path id="Trazado_13633" data-name="Trazado 13633" d="M464.149,126.546v1.277H458.82V120.94h5.2v1.279H460.4v1.494h3.2v1.239h-3.2v1.594Z" transform="translate(-349.516 -92.063)" fill="#bdbdbd"/>
      <path id="Trazado_13634" data-name="Trazado 13634" d="M494.983,127.822l-1.327-1.918h-1.465v1.918H490.6V120.94h2.98c1.839,0,2.987.953,2.987,2.5a2.232,2.232,0,0,1-1.415,2.173l1.544,2.213Zm-1.494-5.584h-1.3v2.4h1.3c.972,0,1.465-.453,1.465-1.191s-.493-1.191-1.465-1.191" transform="translate(-373.725 -92.063)" fill="#bdbdbd"/>
      <path id="Trazado_13635" data-name="Trazado 13635" d="M524.78,118.479v-3.855h1.594v3.795c0,1.308.569,1.849,1.532,1.849s1.534-.541,1.534-1.849v-3.795h1.587v3.855a3.117,3.117,0,1,1-6.234,0m3.559-5.829H530l-1.78,1.415h-1.191Z" transform="translate(-399.762 -85.748)" fill="#bdbdbd"/>
      <path id="Trazado_13636" data-name="Trazado 13636" d="M314.6,177.111v1.136h-4.553v-.9l2.325-2.194c.534-.51.627-.82.627-1.11,0-.476-.326-.75-.953-.75a1.472,1.472,0,0,0-1.248.6l-1.015-.653a2.788,2.788,0,0,1,2.382-1.12c1.341,0,2.237.688,2.237,1.782a2.42,2.42,0,0,1-1.008,1.906l-1.384,1.308Z" transform="translate(-235.981 -131.051)" fill="#bdbdbd"/>
      <path id="Trazado_13637" data-name="Trazado 13637" d="M335.92,175.236c0-1.989,1.1-3.116,2.582-3.116s2.582,1.127,2.582,3.116-1.093,3.114-2.582,3.114-2.582-1.127-2.582-3.114m3.762,0c0-1.367-.476-1.937-1.179-1.937s-1.17.569-1.17,1.937.477,1.937,1.17,1.937,1.179-.569,1.179-1.937" transform="translate(-255.894 -131.051)" fill="#bdbdbd"/>
      <path id="Trazado_13638" data-name="Trazado 13638" d="M367.259,177.111v1.136h-4.553v-.9l2.323-2.194c.534-.51.629-.82.629-1.11,0-.476-.326-.75-.965-.75a1.467,1.467,0,0,0-1.246.6l-1.017-.653a2.8,2.8,0,0,1,2.394-1.12c1.341,0,2.237.688,2.237,1.782a2.42,2.42,0,0,1-1.008,1.906l-1.387,1.308Z" transform="translate(-276.089 -131.051)" fill="#bdbdbd"/>
      <path id="Trazado_13639" data-name="Trazado 13639" d="M390.137,172.55v6.025h-1.394V173.67h-1.2v-1.12Z" transform="translate(-295.217 -131.378)" fill="#bdbdbd"/>
      <rect id="Rectángulo_146" data-name="Rectángulo 146" width="2.435" height="1.077" transform="translate(99.723 44.235)" fill="#bdbdbd"/>
      <path id="Trazado_13640" data-name="Trazado 13640" d="M453.824,177.111v1.136h-4.553v-.9l2.323-2.194c.534-.51.629-.82.629-1.11,0-.476-.326-.75-.953-.75a1.472,1.472,0,0,0-1.248.6L449,173.24a2.788,2.788,0,0,1,2.382-1.12c1.341,0,2.237.688,2.237,1.782a2.42,2.42,0,0,1-1.008,1.906l-1.384,1.308Z" transform="translate(-342.035 -131.051)" fill="#bdbdbd"/>
      <path id="Trazado_13641" data-name="Trazado 13641" d="M475.17,175.236c0-1.989,1.1-3.116,2.582-3.116s2.58,1.127,2.58,3.116-1.091,3.114-2.58,3.114-2.582-1.127-2.582-3.114m3.762,0c0-1.367-.476-1.937-1.179-1.937s-1.17.569-1.17,1.937.476,1.937,1.17,1.937,1.179-.569,1.179-1.937" transform="translate(-361.971 -131.051)" fill="#bdbdbd"/>
      <path id="Trazado_13642" data-name="Trazado 13642" d="M506.521,177.111v1.136h-4.565v-.9l2.323-2.194c.534-.51.629-.82.629-1.11,0-.476-.329-.75-.965-.75a1.472,1.472,0,0,0-1.248.6l-1.015-.653a2.788,2.788,0,0,1,2.382-1.12c1.344,0,2.239.688,2.239,1.782a2.42,2.42,0,0,1-1.008,1.906l-1.387,1.308Z" transform="translate(-382.165 -131.051)" fill="#bdbdbd"/>
      <path id="Trazado_13643" data-name="Trazado 13643" d="M532.874,177.317h-.979v1.265h-1.36v-1.265H527.29v-.939l2.84-3.819h1.463l-2.632,3.621h1.618v-1.127h1.317v1.127h.979Z" transform="translate(-401.674 -131.386)" fill="#bdbdbd"/>
    </g>
  </g>
</svg>
