<svg xmlns="http://www.w3.org/2000/svg" xmlns:xlink="http://www.w3.org/1999/xlink" width="140.426" height="70.401" viewBox="0 0 140.426 70.401">
  <defs>
    <clipPath id="clip-path">
      <path id="Trazado_14039" data-name="Trazado 14039" d="M173.592,52.086a4.046,4.046,0,1,0,4.045-4.046,4.044,4.044,0,0,0-4.045,4.046" fill="#bdbdbd"/>
    </clipPath>
  </defs>
  <g id="Grupo_1147" data-name="Grupo 1147" transform="translate(-41.434 -47.763)">
    <g id="Grupo_1139" data-name="Grupo 1139">
      <path id="Trazado_14030" data-name="Trazado 14030" d="M60.39,84.794H55.7v-22.1L51.408,76.2l-4.3-13.508V84.886l-4.778-.092V48.039H47.25l4.135,12.313,4.089-12.313H60.39Z" fill="#bdbdbd"/>
      <path id="Trazado_14031" data-name="Trazado 14031" d="M82.213,84.794H77.389L75.184,74.732H69.946L67.6,84.794h-4.87l7.81-36.755h4.043Zm-8.04-15.115-1.608-8.5-1.47,8.5Z" fill="#bdbdbd"/>
      <path id="Trazado_14032" data-name="Trazado 14032" d="M100.865,66.141v1.814q0,.852-.092,1.953-.185,3.583-.6,6.57a15.2,15.2,0,0,1-1.195,4.548,6.185,6.185,0,0,1-2.618,2.711,9.84,9.84,0,0,1-4.916,1.057H84.509V48.039H91.63a9.666,9.666,0,0,1,4.916,1.08A5.722,5.722,0,0,1,99.073,51.9a12,12,0,0,1,.666,2.114q.3,1.287.506,2.779t.344,3.033q.138,1.539.184,2.871c0,.459.015,1,.046,1.631S100.865,65.559,100.865,66.141Zm-4.824.138v-.6q0-.414-.023-.874t-.046-.918c-.016-.306-.023-.552-.023-.736q-.185-2.709-.532-4.985a23.686,23.686,0,0,0-.9-3.928,2.337,2.337,0,0,0-1.342-1.585,6.541,6.541,0,0,0-2.266-.344H89.195V80.521h1.712q.74,0,1.249-.046a3.724,3.724,0,0,0,.9-.184,1.807,1.807,0,0,0,.693-.436,4.723,4.723,0,0,0,.625-.8,12.73,12.73,0,0,0,1.064-4.135q.231-2.343.463-5.146a17.175,17.175,0,0,0,.138-2.021Z" fill="#bdbdbd"/>
      <path id="Trazado_14033" data-name="Trazado 14033" d="M108.216,84.794H103.3V48.039h4.916Z" fill="#bdbdbd"/>
      <path id="Trazado_14034" data-name="Trazado 14034" d="M127.42,76.386a9.5,9.5,0,0,1-.6,3.377,8.372,8.372,0,0,1-1.677,2.756,8.027,8.027,0,0,1-2.573,1.861,7.733,7.733,0,0,1-3.285.69,7.584,7.584,0,0,1-3.262-.69,7.438,7.438,0,0,1-2.5-1.884,8.624,8.624,0,0,1-1.607-2.825,11.3,11.3,0,0,1-.621-3.514h4.916a5.007,5.007,0,0,0,.873,3.032,2.631,2.631,0,0,0,2.205,1.194,2.778,2.778,0,0,0,2.3-1.034,4.637,4.637,0,0,0,.828-2.963,10.822,10.822,0,0,0-.162-1.907,8.338,8.338,0,0,0-.528-1.768,9.692,9.692,0,0,0-1.034-1.815q-.666-.942-1.676-2.136L115.2,64.395a14.808,14.808,0,0,1-2.825-4.411,12.526,12.526,0,0,1-.8-4.5,9.759,9.759,0,0,1,.436-2.918,6.432,6.432,0,0,1,1.4-2.458,7,7,0,0,1,2.481-1.7,9.388,9.388,0,0,1,3.675-.644,7.85,7.85,0,0,1,3.354.667,7.016,7.016,0,0,1,2.389,1.791,7.569,7.569,0,0,1,1.447,2.6,11.956,11.956,0,0,1,.575,3.032h-4.641a5.912,5.912,0,0,0-.23-1.263,3.69,3.69,0,0,0-.551-1.126,2.578,2.578,0,0,0-.988-.8,3.415,3.415,0,0,0-1.493-.3,2.984,2.984,0,0,0-2.3.942,3.408,3.408,0,0,0-.873,2.411,6.607,6.607,0,0,0,.6,2.78,12.893,12.893,0,0,0,2.3,3.147l4.227,4.732a18.489,18.489,0,0,1,2.941,4.411A13.072,13.072,0,0,1,127.42,76.386Z" fill="#bdbdbd"/>
      <path id="Trazado_14035" data-name="Trazado 14035" d="M148.048,66.646q0,.505-.023,1.493t-.069,1.815q-.138,1.976-.276,3.469t-.321,2.641q-.185,1.149-.414,2.045a12.677,12.677,0,0,1-.551,1.677,10.017,10.017,0,0,1-2.688,3.836,8.168,8.168,0,0,1-9.418,0,10.017,10.017,0,0,1-2.688-3.836,10.737,10.737,0,0,1-.551-1.631q-.231-.9-.414-2.068t-.321-2.664q-.138-1.492-.276-3.469-.046-.782-.069-1.769t-.023-1.493q0-.551.023-1.677t.115-2.182q.138-1.837.276-3.285t.344-2.573q.207-1.125.46-2.067a16.5,16.5,0,0,1,.62-1.861,8.476,8.476,0,0,1,2.734-3.883,7.862,7.862,0,0,1,8.959,0,8.5,8.5,0,0,1,2.733,3.883q.321.919.6,1.861a20.976,20.976,0,0,1,.482,2.067q.207,1.127.367,2.573t.253,3.285q.091,1.057.115,2.182T148.048,66.646Zm-4.824.322v-.919q0-.644-.046-1.2-.138-2.619-.345-4.732a25.122,25.122,0,0,0-.9-4.5,6.446,6.446,0,0,0-1.1-2.274,2.242,2.242,0,0,0-3.653,0,6.2,6.2,0,0,0-1.125,2.274,25.124,25.124,0,0,0-.9,4.5q-.207,2.113-.345,4.732-.046.552-.046,1.2v.919c0,.214.007.436.023.666s.038.651.069,1.263q.045,1.149.161,2.412t.3,2.5q.183,1.242.436,2.344a13.846,13.846,0,0,0,.575,1.929,6.152,6.152,0,0,0,.987,1.792,2.385,2.385,0,0,0,3.354,0,6.176,6.176,0,0,0,.988-1.792,14.272,14.272,0,0,0,.574-1.929q.252-1.1.436-2.344t.3-2.5q.114-1.263.161-2.412.045-.918.069-1.263T143.224,66.968Z" fill="#bdbdbd"/>
      <path id="Trazado_14036" data-name="Trazado 14036" d="M167.39,84.794H162.7L155.95,63.016V84.794h-4.686V48.131h4.686l6.754,20.72V48.131h4.686Z" fill="#bdbdbd"/>
    </g>
    <g id="Grupo_1144" data-name="Grupo 1144">
      <g id="Grupo_1143" data-name="Grupo 1143" clip-path="url(#clip-path)">
        <g id="Grupo_1142" data-name="Grupo 1142">
          <g id="Grupo_1140" data-name="Grupo 1140">
            <path id="Trazado_14037" data-name="Trazado 14037" d="M177.446,55h-.752V51.452L176,53.62l-.689-2.168v3.561L174.548,55V49.1h.789L176,51.076l.656-1.976h.789Z" fill="#bdbdbd"/>
          </g>
          <g id="Grupo_1141" data-name="Grupo 1141">
            <path id="Trazado_14038" data-name="Trazado 14038" d="M180.719,55h-.8l-.782-2.779-.339.752V55h-.752V49.093h.767v2.352l1.039-2.352h.826l-1.017,2.234Z" fill="#bdbdbd"/>
          </g>
        </g>
      </g>
    </g>
    <g id="Grupo_1146" data-name="Grupo 1146">
      <g id="Grupo_1145" data-name="Grupo 1145">
        <path id="Trazado_14040" data-name="Trazado 14040" d="M177.638,56.305a4.221,4.221,0,1,1,4.222-4.219A4.226,4.226,0,0,1,177.638,56.305Zm0-8.09a3.869,3.869,0,1,0,3.87,3.871A3.875,3.875,0,0,0,177.638,48.215Z" fill="#bdbdbd"/>
      </g>
      <path id="Trazado_14041" data-name="Trazado 14041" d="M94.69,99.009c-2.842-1.114-5.17,3.748-3.985,5.929,1.1,2.031,4.785.19,6.068-.615.583-.366-.258-.723-.674-.462-1.019.638-2.9,1.654-4.1.994-1.74-.957.349-5.852,2.107-5.162.431.168,1.19-.448.588-.684" fill="#bdbdbd"/>
      <path id="Trazado_14042" data-name="Trazado 14042" d="M52.314,100.353c-1.226,2.42-1.991,4.782-3.43,7.1-.2.321.625.217.766-.01,1.44-2.321,2.185-4.937,3.411-7.359.176-.346-.626.029-.747.267" fill="#bdbdbd"/>
      <path id="Trazado_14043" data-name="Trazado 14043" d="M49.07,99.761c.991,3.4,2.284,6.672,3.237,10.083.082.29.791.441.708.142-.954-3.411-2.023-7.112-3.013-10.513-.085-.291-1.017-.008-.932.288" fill="#bdbdbd"/>
      <path id="Trazado_14044" data-name="Trazado 14044" d="M53.406,97.854c.816,6.7,1.187,13.44,1.544,20.179.017.314.923,0,.91-.259-.36-6.775-.73-13.55-1.552-20.287-.025-.217-.94.054-.9.367" fill="#bdbdbd"/>
      <path id="Trazado_14045" data-name="Trazado 14045" d="M54.779,101.219A4.122,4.122,0,0,1,55.56,99.4c.916-1.3,1.666.049,1.971.559a8.109,8.109,0,0,1,.811,2.434,5.947,5.947,0,0,1,.119,2.678c-.324,1.384-2.479,2.654-3.314.821-.165-.362-1.068,0-.9.357.782,1.716,2.743,1.461,4.016.364,1.331-1.148,1.361-2.6,1.063-4.178-.195-1.034-.858-4.418-2.538-4.348-1.706.07-2.7,1.959-2.936,3.336-.069.4.868.168.932-.2" fill="#bdbdbd"/>
      <path id="Trazado_14046" data-name="Trazado 14046" d="M68.193,98.313c-.233,3.014.5,5.944.668,8.941l.95-.217c-.309-2.32-.9-7.724,2.811-7.33.19.021,1.089-.3.628-.346a4.029,4.029,0,0,0-3.456.9c-1.66,1.667-1.206,4.947-.933,6.993.024.178.964.011.95-.217-.167-3-.9-5.927-.668-8.94.01-.126-.929-.049-.95.216" fill="#bdbdbd"/>
      <path id="Trazado_14047" data-name="Trazado 14047" d="M129.418,97.976c-.127,2.97.762,5.8,1.058,8.736l.942-.252c-.454-2.451-1.155-7.535,2.721-7.277.191.012,1.078-.34.616-.371a4.246,4.246,0,0,0-3.657,1.115c-1.529,1.736-1,4.766-.622,6.785.033.18.964-.025.942-.252-.3-2.932-1.186-5.767-1.058-8.736.005-.125-.931-.013-.942.252" fill="#bdbdbd"/>
      <path id="Trazado_14048" data-name="Trazado 14048" d="M74.156,99.1a62.035,62.035,0,0,1-.729,9.079c-.052.337.893.164.938-.131a62.988,62.988,0,0,0,.733-9.2c0-.257-.94-.091-.942.252" fill="#bdbdbd"/>
      <path id="Trazado_14049" data-name="Trazado 14049" d="M74.965,96.113a1.27,1.27,0,0,0-.845.284.829.829,0,0,0-.05.849c.051.163.276.191.417.146a1.744,1.744,0,0,0,.715-.408,1.763,1.763,0,0,0,.339-.633c.147-.378-.562-.369-.676-.079s-.19.535-.507.638l.418.146c-.029-.089-.126-.376-.087-.43-.038.053-.086.041.018.019.026-.006.14-.014.194-.019.155-.014.368-.107.39-.284s-.188-.242-.326-.229" fill="#bdbdbd"/>
      <path id="Trazado_14050" data-name="Trazado 14050" d="M155.432,95.006a1,1,0,0,0-.176-.762.939.939,0,0,0-.834-.165.267.267,0,0,0-.195.335,1.766,1.766,0,0,0,.225.789,1.113,1.113,0,0,0,.674.26c.176.024.434-.426.162-.564s-.507-.24-.569-.526l-.2.336a1.25,1.25,0,0,1,.436-.012c-.048-.041-.03-.08-.021.012,0,.023,0,.121-.006.169a.361.361,0,0,0,.234.373c.17.044.262-.125.266-.245" fill="#bdbdbd"/>
      <path id="Trazado_14051" data-name="Trazado 14051" d="M154.115,97.784a61.9,61.9,0,0,1-.729,9.079c-.052.336.893.164.937-.131a62.854,62.854,0,0,0,.734-9.2c0-.256-.94-.09-.942.253" fill="#bdbdbd"/>
      <path id="Trazado_14052" data-name="Trazado 14052" d="M83.786,96.051c-.3,3.44-.206,6.89-.282,10.339-.009.374.892.243.957-.078.556-2.684,1.264-6.379,3.646-8.054-.285-.022-.569-.047-.855-.069.584,3.09-1.681,10.5,3.965,8.833.624-.185.127-.661-.348-.52-4.1,1.214-2.247-6.311-2.655-8.473-.069-.367-.664-.2-.856-.07-2.5,1.758-3.271,5.552-3.85,8.351.319-.028.639-.053.959-.078.074-3.4-.026-6.792.272-10.179.04-.453-.919-.372-.953,0" fill="#bdbdbd"/>
      <path id="Trazado_14053" data-name="Trazado 14053" d="M157.125,97.831c-.037,2.933.325,5.849.514,8.776.02.318.907.154.948-.122.348-2.306.769-5.478,3.017-7.036l-.86-.01c.82,2.585-.868,9,4.634,7.253.608-.193.075-.567-.388-.419-3.992,1.266-2.726-5.217-3.3-7.024-.1-.307-.677-.134-.858-.01-2.356,1.634-2.833,4.9-3.195,7.3l.948-.122c-.187-2.881-.547-5.753-.511-8.639.005-.387-.947-.262-.95.053" fill="#bdbdbd"/>
      <path id="Trazado_14054" data-name="Trazado 14054" d="M41.639,106.092c2.375.62,5.478-1.939,6.192-4.105.386-1.166-.658-1.528-1.6-1.515-1.287.017-2.27,1.217-2.9,2.195-.7,1.1-2.654,6.125-.007,6.353,2.092.18,4.23-2.125,5.432-3.594.374-.457-.527-.559-.78-.248a13.617,13.617,0,0,1-2.963,2.7c-.624.415-1.477.841-1.859-.06a4.142,4.142,0,0,1-.014-2.371,9.077,9.077,0,0,1,1.086-2.69c.3-.516,2.269-2.741,2.706-1.211.5,1.739-3.411,4.292-4.749,3.944-.379-.1-1.117.458-.552.605" fill="#bdbdbd"/>
      <path id="Trazado_14055" data-name="Trazado 14055" d="M60.193,105.175c2.427.411,5.987-1.466,6.079-4.121a1.693,1.693,0,0,0-1.71-1.966,3.6,3.6,0,0,0-2.782,2.005c-1.016,1.651-2.287,6.012.441,6.817,2.028.6,4.928-1.977,5.463-3.628.087-.267-.327-.339-.591-.038-1.253,1.963-1.729,2.316-3.018,2.8-2.408.9-2.657-1.818-2.4-3.29A7.975,7.975,0,0,1,62.742,101c.569-.924,2.015-1.942,2.517-.419.774,2.352-2.825,4.1-4.767,3.767-.389-.066-.878.727-.3.824" fill="#bdbdbd"/>
      <path id="Trazado_14056" data-name="Trazado 14056" d="M76.312,105.129a5.368,5.368,0,0,0,5.113-5.323c-.066-1.218-.971-1.526-2.014-1.253-1.261.33-1.929,1.751-2.294,2.868-.455,1.393-1.061,6.483,1.62,6.117,1.993-.273,3.529-3.57,3.9-5.267.11-.508-.806-.247-.889.133a8.966,8.966,0,0,1-2.078,3.847c-1.582,1.768-2.064-1.4-2.055-2.535a9.011,9.011,0,0,1,.478-2.7c.232-.711,1.546-2.873,2.307-1.445,1.1,2.059-1.829,4.882-3.7,4.834-.394-.011-.972.706-.387.721" fill="#bdbdbd"/>
      <path id="Trazado_14057" data-name="Trazado 14057" d="M139.268,102.487a5.342,5.342,0,0,0,6.274-4.033c.18-1.162-.667-1.6-1.679-1.587-1.287.016-2.27,1.217-2.894,2.195-.7,1.1-2.656,6.125-.007,6.354,2.091.179,4.229-2.127,5.43-3.594.375-.458-.526-.56-.779-.249a13.617,13.617,0,0,1-2.963,2.7c-.624.415-1.477.84-1.858-.06a4.142,4.142,0,0,1-.015-2.371,9.091,9.091,0,0,1,1.087-2.69c.346-.594,2.128-2.668,2.7-1.181a2.958,2.958,0,0,1-.7,2.366,4.518,4.518,0,0,1-4.037,1.548c-.38-.1-1.116.451-.552.6" fill="#bdbdbd"/>
      <path id="Trazado_14058" data-name="Trazado 14058" d="M97.462,103.032c2.375.62,5.477-1.938,6.191-4.1.386-1.166-.657-1.528-1.6-1.516-1.287.018-2.27,1.218-2.893,2.2-.7,1.1-2.656,6.125-.008,6.353a7.252,7.252,0,0,0,5.756-2.332c.376-.458-.688-.662-.941-.351a4.14,4.14,0,0,1-2.5,1.818c-.716.218-2.1.56-2.486-.341a4.13,4.13,0,0,1-.015-2.37,9.069,9.069,0,0,1,1.087-2.69c.3-.516,2.268-2.741,2.705-1.211.5,1.739-3.612,4.3-4.95,3.952-.38-.1-.747.547-.35.6" fill="#bdbdbd"/>
      <path id="Trazado_14059" data-name="Trazado 14059" d="M126.951,99.26c-.712-1.13-2.022-.415-2.695.383a10.536,10.536,0,0,0-2.146,5.435c-.133,1.3.575,2.027,1.843,1.359,2.346-1.238,2.929-4.9,3.087-7.283l-.941.252c-.021,1.321-.155,2.632-.25,3.949a4.892,4.892,0,0,0,.251,2.826c.563.93,2.3.24,3.027-.008.633-.215.039-.395-.341-.268-1.769.6-2.067-.269-2.044-1.821.024-1.647.274-3.282.3-4.93,0-.2-.923-.042-.941.252a14.324,14.324,0,0,1-1.385,5.354c-.161.326-1.157,2.037-1.566,1.226a2.611,2.611,0,0,1-.063-1.419,11.881,11.881,0,0,1,1.135-3.5,7.994,7.994,0,0,1,.9-1.469c.363-.464.534-.658.893-.088.164.259,1.043-.094.942-.252" fill="#bdbdbd"/>
      <path id="Trazado_14060" data-name="Trazado 14060" d="M134.986,93.689c.016,4.795.234,9.586.325,14.379.008.433.953.243.946-.1-.092-4.793-.31-9.584-.324-14.379,0-.432-.948-.245-.947.1" fill="#bdbdbd"/>
      <path id="Trazado_14061" data-name="Trazado 14061" d="M137.992,97.6a31.314,31.314,0,0,1-2.326,5.447c-.2.451.746.369.887.053.79-1.8,1.959-3.677,2.386-5.6.087-.4-.869-.255-.947.1" fill="#bdbdbd"/>
      <path id="Trazado_14062" data-name="Trazado 14062" d="M135.15,102.31a15.144,15.144,0,0,0,3.52,4.662c.187.161,1.018-.2.888-.316a14.919,14.919,0,0,1-3.466-4.6c-.114-.223-1.011.116-.942.253" fill="#bdbdbd"/>
      <path id="Trazado_14063" data-name="Trazado 14063" d="M147.926,92.942c-.116,3.572-.514,7.2-.131,10.767.263,2.445,2.071,2.333,3.736,1.292.537-.336-.3-.373-.565-.21-2.707,1.692-2.316-3.206-2.355-4.273-.1-2.606.172-5.225.257-7.828.008-.223-.931-.075-.942.252" fill="#bdbdbd"/>
      <path id="Trazado_14064" data-name="Trazado 14064" d="M145.477,96.409A28.529,28.529,0,0,0,153,94.985c.575-.154.419-.737-.156-.583a26.788,26.788,0,0,1-7.031,1.376c-.416,0-.976.627-.34.631" fill="#bdbdbd"/>
      <path id="Trazado_14065" data-name="Trazado 14065" d="M168.246,99.656a85.236,85.236,0,0,1-.733,8.5c-.339,2.7-.584,5.951-1.983,8.35-.814,1.4-2.775-1.221-2.991-1.581a2.637,2.637,0,0,1,.146-2.49c.821-1.663,2.977-2.693,4.538-3.475,2.552-1.279,5.319-1.991,7.91-3.162.613-.277-.342-.266-.591-.152-3.648,1.648-7.536,2.553-10.863,4.89-1.009.707-2.3,1.874-2.383,3.209-.1,1.625,1.384,3.644,3.175,3.571,3.018-.122,3.221-4.179,3.623-6.467a78.12,78.12,0,0,0,1.169-11.469c.005-.176-1.009-.034-1.017.272" fill="#bdbdbd"/>
      <path id="Trazado_14066" data-name="Trazado 14066" d="M169.218,99.193c.037-.267-.746-.1-.806.123a14.758,14.758,0,0,1-1.9,4.515c-.219.324-1.438,1.844-1.584,1.038a4.119,4.119,0,0,1,.2-1.51c.2-.9,1.9-5.489,3-4.166.151.181.925-.1.761-.3-2.126-2.56-4.464,3.959-4.707,5.27-.17.91-.011,1.827,1.093,1.4,2.367-.922,3.359-4.206,3.952-6.371l-.806.123" fill="#bdbdbd"/>
      <path id="Trazado_14067" data-name="Trazado 14067" d="M112.44,96.69a73.886,73.886,0,0,0,.79,11.319c.058.372.8.142.8-.2.04-3.4-.045-8.376,2.123-11.361l-1.068.089c1.375,3.458.732,7.137,1.694,10.663.111.4.781.193.863-.115.67-2.5.028-5.26,2.21-7.386l-.948.217c2.286,1.539-.51,11.146,5.435,8.573.675-.291.071-.7-.465-.49-4,1.587-2.316-7.383-4.115-8.592a.837.837,0,0,0-.947.217c-1.839,2.252-1.35,4.933-2.037,7.5.367-.058.5-.059.863-.116-.963-3.528-.077-7.255-1.455-10.718-.15-.377-.894-.15-1.069.088-2.232,3.073-1.847,8.064-1.889,11.553.368-.056.433-.14.8-.2a77.447,77.447,0,0,1-.766-11.492c0-.459-.821.075-.82.453" fill="#bdbdbd"/>
    </g>
  </g>
</svg>
