<svg xmlns="http://www.w3.org/2000/svg" width="135.902" height="56.35" viewBox="0 0 135.902 56.35">
  <g id="Grupo_1132" data-name="Grupo 1132" transform="translate(-108.01 -650.542)">
    <path id="Trazado_13960" data-name="Trazado 13960" d="M157.956,706.892H114.413a6.409,6.409,0,0,1-6.4-6.4V656.946a6.411,6.411,0,0,1,6.4-6.4h43.543a6.411,6.411,0,0,1,6.4,6.4v43.542a6.409,6.409,0,0,1-6.4,6.4m-43.543-54.431a4.489,4.489,0,0,0-4.483,4.485v43.542a4.486,4.486,0,0,0,4.483,4.483h43.543a4.485,4.485,0,0,0,4.481-4.483V656.946a4.488,4.488,0,0,0-4.481-4.485Z" fill="#fff"/>
    <path id="Trazado_13961" data-name="Trazado 13961" d="M158.922,705.933H113.443a4.474,4.474,0,0,1-4.473-4.474V655.977a4.474,4.474,0,0,1,4.473-4.474h45.483a4.471,4.471,0,0,1,4.471,4.471v45.484a4.475,4.475,0,0,1-4.475,4.475" fill="#bdbdbd"/>
    <path id="Trazado_13962" data-name="Trazado 13962" d="M147.729,677.547c0,.718-.12,1.144-.616,1.353a12.327,12.327,0,0,0-3.221-3.394v-5.684c0-1.482,1.815-1.379,1.815-1.379h.083s1.939-.136,1.939,1.412Zm-3.837,4.539v-2.721a6.09,6.09,0,0,1,1.432,2.411,8.29,8.29,0,0,1,.287,1.779c-1.362.024-1.719-.423-1.719-1.469m13.566-5.373h-.529c-.81,1.245-1.672,2.35-3.376,2.35h-2.517c-1.266,0-1.672-.458-1.672-1.447v-7.658c0-1.261.44-1.566,2.006-1.515v-.495H140.338v.495c1.62-.051,1.918.391,1.918,1.379v4.619a21.6,21.6,0,0,0-6.122-2.329l-.337-.066c-.77-.157-1.513-.3-2.232-.5-1.853-.73-3.388-1.525-3.388-3.339a2.717,2.717,0,0,1,.882-2.084,4.306,4.306,0,0,1,5.888.583,6.271,6.271,0,0,1,1.048,2.22c.052.2.1.4.147.609h.689l-.154-4.006c-.062-.03-.126-.059-.193-.087-.173-.077-.355-.151-.541-.22a11.931,11.931,0,0,0-3.987-.793c-2.5,0-4.815,1.246-5.54,3.518h-4.273v.495c1.636.016,2.024.781,2.024,2.278v4.931a4.571,4.571,0,0,1-1.161,3.385,4.062,4.062,0,0,1-2.919,1.005c-2.394,0-3.731-1.312-3.731-3.318v-6.937c0-.92.3-1.412,1.987-1.344v-.495h-5.434v.495c1.673-.051,1.813.561,1.813,1.6v6.919c0,2.042,1.545,3.852,5.029,3.852,3.308,0,5.031-1.6,5.031-4.9v-5.363c0-1.534.469-1.9,1.5-2.064a5.348,5.348,0,0,0-.094,1,4.405,4.405,0,0,0,2.162,3.909c.045.032.087.057.132.088l.007,0,.121.075a4.593,4.593,0,0,0,1.4.558,32.84,32.84,0,0,1,7.779,2.3c.348.176.686.36,1.015.563l.25.149a10.8,10.8,0,0,1,1.2.781v4.224c0,1.089-.4,1.447-1.918,1.412v.5h5.282a6.772,6.772,0,0,1-1.793,4.525l-.96.978a11.178,11.178,0,0,1-10.055,2.561c-3.893-.826-7.219-4.107-6.979-8.214a6.428,6.428,0,0,1,2.129-4.48,6.733,6.733,0,0,1,.972-.709,6.274,6.274,0,0,1,5.942-.221,6.047,6.047,0,0,1,2.63,2.433,5.625,5.625,0,0,1,.424.918,5.308,5.308,0,0,1,.307,2.057,4.4,4.4,0,0,1-3.119,4.025,3.6,3.6,0,0,1-3.674-.91,2.456,2.456,0,0,1-.547-1.179,1.9,1.9,0,1,0-.807-2.358,3.152,3.152,0,0,0-.253,1.581,3.913,3.913,0,0,0,2.589,3.246,4.725,4.725,0,0,0,6.287-4.4v0c0-.084.008-.16.011-.245a6.522,6.522,0,0,0-.174-1.382,5.073,5.073,0,0,0-.249-.752c-.079-.193-.14-.308-.14-.308-.126-.242-.262-.477-.41-.7a6.785,6.785,0,0,0-5.932-3.117,6.34,6.34,0,0,0-3.878,1.384,7.206,7.206,0,0,0-2.664,5.119,7.351,7.351,0,0,0,.878,3.974,9.6,9.6,0,0,0,6.122,4.685,12.839,12.839,0,0,0,3.33.457h.071c6.6,0,12.678-3.488,12.678-9.91a7.776,7.776,0,0,0-.876-3.538h9.15Z" fill="#fff"/>
    <path id="Trazado_13963" data-name="Trazado 13963" d="M170.447,668.788v-3.436a.23.23,0,0,1,.459,0v3.39a2.025,2.025,0,0,0,2.1,2.306c1.261,0,2.066-.761,2.066-2.26v-3.436a.233.233,0,0,1,.465,0v3.378a2.551,2.551,0,1,1-5.093.058" fill="#bdbdbd"/>
    <path id="Trazado_13964" data-name="Trazado 13964" d="M177.108,665.359a.231.231,0,0,1,.229-.228h.07a.293.293,0,0,1,.233.131l4.184,5.317v-5.238a.221.221,0,0,1,.224-.218.218.218,0,0,1,.22.218V671.2a.19.19,0,0,1-.187.2h-.033a.316.316,0,0,1-.232-.149l-4.268-5.416v5.353a.22.22,0,0,1-.44,0Z" fill="#bdbdbd"/>
    <path id="Trazado_13965" data-name="Trazado 13965" d="M184,665.352a.234.234,0,0,1,.231-.229.23.23,0,0,1,.227.229v5.819a.232.232,0,0,1-.227.231.236.236,0,0,1-.231-.231Z" fill="#bdbdbd"/>
    <path id="Trazado_13966" data-name="Trazado 13966" d="M188.31,671.227l-2.529-5.788a.179.179,0,0,1-.016-.1.228.228,0,0,1,.227-.218.264.264,0,0,1,.241.187l2.369,5.563,2.376-5.574a.268.268,0,0,1,.232-.176.224.224,0,0,1,.224.211.152.152,0,0,1-.019.09l-2.54,5.8a.284.284,0,0,1-.273.2h-.017a.282.282,0,0,1-.275-.2" fill="#bdbdbd"/>
    <path id="Trazado_13967" data-name="Trazado 13967" d="M192.661,671.138v-5.749a.236.236,0,0,1,.235-.23h4.01a.212.212,0,0,1,0,.425h-3.784v2.439h3.384a.214.214,0,0,1,0,.427h-3.384v2.492h3.825a.212.212,0,1,1,0,.424H192.9a.237.237,0,0,1-.235-.228" fill="#bdbdbd"/>
    <path id="Trazado_13968" data-name="Trazado 13968" d="M198.429,665.388a.233.233,0,0,1,.23-.23h2.375a2.445,2.445,0,0,1,1.748.61,1.64,1.64,0,0,1,.472,1.155v.017c0,1.039-.771,1.635-1.818,1.776L203.2,671a.258.258,0,0,1,.072.161.252.252,0,0,1-.24.238.258.258,0,0,1-.206-.125l-1.906-2.482h-2.032v2.375a.23.23,0,1,1-.459,0Zm2.551,2.988c1.038,0,1.812-.523,1.812-1.418v-.018c0-.833-.656-1.357-1.781-1.357h-2.123v2.793Z" fill="#bdbdbd"/>
    <path id="Trazado_13969" data-name="Trazado 13969" d="M204.4,670.586a.236.236,0,0,1-.087-.176.239.239,0,0,1,.231-.233.3.3,0,0,1,.151.052,2.874,2.874,0,0,0,2.1.808c.929,0,1.568-.52,1.568-1.231v-.017c0-.659-.347-1.041-1.756-1.321-1.493-.3-2.1-.809-2.1-1.747V666.7a1.8,1.8,0,0,1,2-1.634,3.056,3.056,0,0,1,1.977.638.258.258,0,0,1,.1.189.235.235,0,0,1-.23.229.242.242,0,0,1-.15-.05,2.668,2.668,0,0,0-1.715-.589c-.91,0-1.515.524-1.515,1.173v.018c0,.655.335,1.056,1.807,1.354,1.439.295,2.044.809,2.044,1.714v.016a1.825,1.825,0,0,1-2.058,1.7,3.513,3.513,0,0,1-2.362-.87" fill="#bdbdbd"/>
    <path id="Trazado_13970" data-name="Trazado 13970" d="M210.226,665.352a.231.231,0,0,1,.227-.229.234.234,0,0,1,.233.229v5.819a.236.236,0,0,1-.233.231.233.233,0,0,1-.227-.231Z" fill="#bdbdbd"/>
    <path id="Trazado_13971" data-name="Trazado 13971" d="M212.414,665.389a.232.232,0,0,1,.232-.23h1.834a3.094,3.094,0,0,1,3.3,3.089v.011a3.106,3.106,0,0,1-3.3,3.106h-1.834a.233.233,0,0,1-.232-.227Zm2.066,5.553a2.636,2.636,0,0,0,2.822-2.663v-.02a2.652,2.652,0,0,0-2.822-2.675h-1.606v5.358Z" fill="#bdbdbd"/>
    <path id="Trazado_13972" data-name="Trazado 13972" d="M218.385,671.067l2.651-5.751a.328.328,0,0,1,.31-.22h.017a.329.329,0,0,1,.312.22l2.642,5.732a.293.293,0,0,1,.036.143.218.218,0,0,1-.222.212.271.271,0,0,1-.231-.176l-.725-1.6h-3.663l-.728,1.605a.24.24,0,0,1-.223.167.207.207,0,0,1-.212-.192.317.317,0,0,1,.036-.144m4.593-1.852-1.632-3.6-1.642,3.6Z" fill="#bdbdbd"/>
    <path id="Trazado_13973" data-name="Trazado 13973" d="M225.6,665.389a.232.232,0,0,1,.228-.23h1.837a3.1,3.1,0,0,1,3.3,3.089v.011a3.107,3.107,0,0,1-3.3,3.106h-1.837a.233.233,0,0,1-.228-.227Zm2.065,5.553a2.637,2.637,0,0,0,2.821-2.663v-.02a2.652,2.652,0,0,0-2.821-2.675h-1.6v5.358Z" fill="#bdbdbd"/>
    <path id="Trazado_13974" data-name="Trazado 13974" d="M170.761,681.155a.77.77,0,0,1,.463-1.391.8.8,0,0,1,.475.15,3.182,3.182,0,0,0,1.933.68c.678,0,1.088-.267,1.088-.712v-.022c0-.419-.258-.636-1.521-.958-1.522-.392-2.5-.81-2.5-2.31v-.019a2.36,2.36,0,0,1,2.642-2.278,4.37,4.37,0,0,1,2.4.668.761.761,0,0,1,.369.66.77.77,0,0,1-.779.767.785.785,0,0,1-.418-.123,3.175,3.175,0,0,0-1.589-.506c-.636,0-.968.289-.968.658v.02c0,.5.323.661,1.626,1,1.535.395,2.4.944,2.4,2.261v.022c0,1.5-1.146,2.342-2.777,2.342a4.878,4.878,0,0,1-2.834-.907" fill="#bdbdbd"/>
    <path id="Trazado_13975" data-name="Trazado 13975" d="M177.124,680.884l2.63-5.942a1.029,1.029,0,0,1,.972-.658h.094a1.006,1.006,0,0,1,.962.658l2.634,5.942a.817.817,0,0,1,.088.337.79.79,0,0,1-.79.8.848.848,0,0,1-.8-.574l-.5-1.185h-3.324l-.527,1.24a.821.821,0,0,1-.77.519.766.766,0,0,1-.763-.779.888.888,0,0,1,.1-.357m4.672-2.092L180.75,676.3l-1.047,2.491Z" fill="#bdbdbd"/>
    <path id="Trazado_13976" data-name="Trazado 13976" d="M185.591,675.187a.819.819,0,0,1,.828-.825h.171a1.027,1.027,0,0,1,.866.482l3.2,4.21v-3.9a.822.822,0,0,1,1.644,0v6.008a.829.829,0,0,1-.835.834h-.051a1.036,1.036,0,0,1-.866-.487l-3.321-4.359V681.2a.819.819,0,1,1-1.637,0Z" fill="#bdbdbd"/>
    <path id="Trazado_13977" data-name="Trazado 13977" d="M197.418,675.17a.831.831,0,1,1,1.662,0v6.017a.831.831,0,1,1-1.662,0Z" fill="#bdbdbd"/>
    <path id="Trazado_13978" data-name="Trazado 13978" d="M200.415,678.2v-.019a3.877,3.877,0,0,1,3.959-3.908,4.173,4.173,0,0,1,2.579.736.82.82,0,0,1-.476,1.489.8.8,0,0,1-.506-.175,2.654,2.654,0,0,0-1.648-.516,2.266,2.266,0,0,0-2.168,2.349v.025a2.259,2.259,0,0,0,2.285,2.392,2.637,2.637,0,0,0,1.565-.451V679.04h-1.122a.712.712,0,0,1-.723-.712.722.722,0,0,1,.723-.721h1.9a.824.824,0,0,1,.828.832v1.833a1.118,1.118,0,0,1-.581,1.055,5.024,5.024,0,0,1-2.643.759,3.781,3.781,0,0,1-3.971-3.887" fill="#bdbdbd"/>
    <path id="Trazado_13979" data-name="Trazado 13979" d="M208.989,675.187a.819.819,0,0,1,.829-.825h.176a1.021,1.021,0,0,1,.861.482l3.2,4.21v-3.9a.821.821,0,1,1,1.641,0v6.008a.825.825,0,0,1-.829.834h-.057a1.027,1.027,0,0,1-.863-.487l-3.32-4.359V681.2a.821.821,0,1,1-1.641,0Z" fill="#bdbdbd"/>
    <path id="Trazado_13980" data-name="Trazado 13980" d="M216.872,680.884l2.631-5.942a1.026,1.026,0,0,1,.973-.658h.094a1,1,0,0,1,.96.658l2.634,5.942a.8.8,0,0,1,.086.337.788.788,0,0,1-.788.8.843.843,0,0,1-.795-.574l-.507-1.185h-3.325l-.529,1.24a.814.814,0,0,1-.763.519.767.767,0,0,1-.768-.779.89.89,0,0,1,.1-.357m4.668-2.092L220.5,676.3l-1.046,2.491Z" fill="#bdbdbd"/>
    <path id="Trazado_13981" data-name="Trazado 13981" d="M224.734,678.2v-.019a3.84,3.84,0,0,1,3.935-3.908,4.011,4.011,0,0,1,2.523.763.833.833,0,0,1,.327.661.812.812,0,0,1-.82.812.866.866,0,0,1-.5-.165,2.5,2.5,0,0,0-1.542-.537,2.24,2.24,0,0,0-2.191,2.349v.025a2.243,2.243,0,0,0,2.191,2.372,2.428,2.428,0,0,0,1.638-.593.8.8,0,0,1,.5-.185.768.768,0,0,1,.494,1.362,3.977,3.977,0,0,1-6.557-2.937" fill="#bdbdbd"/>
    <path id="Trazado_13982" data-name="Trazado 13982" d="M232.886,675.17a.832.832,0,1,1,1.663,0v6.017a.831.831,0,1,1-1.663,0Z" fill="#bdbdbd"/>
    <path id="Trazado_13983" data-name="Trazado 13983" d="M235.883,678.2v-.019a4.016,4.016,0,0,1,8.029-.025v.025a4.016,4.016,0,0,1-8.029.019m6.288,0v-.019a2.294,2.294,0,0,0-2.286-2.374,2.261,2.261,0,0,0-2.266,2.349v.025a2.3,2.3,0,0,0,2.29,2.372,2.255,2.255,0,0,0,2.262-2.353" fill="#bdbdbd"/>
    <path id="Trazado_13984" data-name="Trazado 13984" d="M170.447,685.514a.823.823,0,0,1,.829-.83h2.115a3.764,3.764,0,0,1,4.011,3.755v.022a3.78,3.78,0,0,1-4.011,3.777h-2.115a.824.824,0,0,1-.829-.835Zm2.944,5.221a2.148,2.148,0,0,0,2.272-2.255v-.019a2.165,2.165,0,0,0-2.272-2.275h-1.283v4.549Z" fill="#bdbdbd"/>
    <path id="Trazado_13985" data-name="Trazado 13985" d="M178.23,691.4v-5.889a.824.824,0,0,1,.832-.831h4.184a.747.747,0,0,1,.745.747.733.733,0,0,1-.745.729h-3.364V687.7h2.881a.739.739,0,1,1,0,1.478h-2.881v1.584h3.42a.74.74,0,1,1,0,1.479h-4.24a.825.825,0,0,1-.832-.834" fill="#bdbdbd"/>
    <path id="Trazado_13986" data-name="Trazado 13986" d="M188.261,685.452a.831.831,0,1,1,1.661,0v5.273h3.072a.757.757,0,0,1,0,1.513h-3.9a.824.824,0,0,1-.829-.834Z" fill="#bdbdbd"/>
    <path id="Trazado_13987" data-name="Trazado 13987" d="M193.954,688.48v-.019a4.014,4.014,0,0,1,8.024-.022v.022a4.014,4.014,0,0,1-8.024.019m6.289,0v-.019a2.293,2.293,0,0,0-2.287-2.373,2.259,2.259,0,0,0-2.267,2.351v.022a2.293,2.293,0,0,0,2.286,2.371,2.258,2.258,0,0,0,2.268-2.352" fill="#bdbdbd"/>
    <path id="Trazado_13988" data-name="Trazado 13988" d="M204.836,689.324l-2.438-3.313a.98.98,0,0,1-.208-.593.815.815,0,0,1,.834-.8.952.952,0,0,1,.817.51l1.835,2.643,1.867-2.666a.951.951,0,0,1,.8-.495.771.771,0,0,1,.809.808,1.018,1.018,0,0,1-.218.582l-2.435,3.291v2.177a.831.831,0,0,1-1.662,0Z" fill="#bdbdbd"/>
    <path id="Trazado_13989" data-name="Trazado 13989" d="M209.354,688.48v-.019a4.014,4.014,0,0,1,8.025-.022v.022a4.014,4.014,0,0,1-8.025.019m6.289,0v-.019a2.294,2.294,0,0,0-2.288-2.373,2.259,2.259,0,0,0-2.266,2.351v.022a2.294,2.294,0,0,0,2.288,2.371,2.259,2.259,0,0,0,2.266-2.352" fill="#bdbdbd"/>
    <path id="Trazado_13990" data-name="Trazado 13990" d="M218.635,685.452a.832.832,0,1,1,1.664,0v5.273h3.076a.757.757,0,0,1,0,1.513h-3.906a.828.828,0,0,1-.834-.834Z" fill="#bdbdbd"/>
    <path id="Trazado_13991" data-name="Trazado 13991" d="M224.676,691.169l2.633-5.945a1.02,1.02,0,0,1,.971-.655h.1a1.013,1.013,0,0,1,.959.655l2.629,5.945a.771.771,0,0,1-.7,1.129.834.834,0,0,1-.8-.568l-.511-1.184h-3.32l-.528,1.236a.816.816,0,0,1-.768.516.763.763,0,0,1-.766-.775.873.873,0,0,1,.1-.354m4.67-2.093-1.047-2.49-1.045,2.49Z" fill="#bdbdbd"/>
  </g>
</svg>
